<svg width="27" height="19" viewBox="0 0 27 19" fill="none" xmlns="http://www.w3.org/2000/svg">
<path d="M26 16.7695L27 16.77L27 16.7694L26 16.7695ZM1 16.7695L-1.62343e-07 16.7694L9.74328e-08 16.77L1 16.7695ZM26 9.38477L27 9.38506L27 9.38462L26 9.38477ZM1 9.38477L-8.64375e-08 9.38462L4.32105e-08 9.38506L1 9.38477ZM26 2L27 2.00015L27 1.99985L26 2ZM1 2L-3.24325e-08 1.99985L1.08108e-08 2.00015L1 2ZM25 15.7695V16.7695L25 16.7697L26 16.7695L27 16.7694C26.9998 15.6651 26.1047 14.7695 25 14.7695V15.7695ZM26 16.7695L25 16.7691L25 16.7695V17.7695V18.7695C26.1049 18.7695 26.9995 17.8736 27 16.77L26 16.7695ZM25 17.7695V16.7695H2V17.7695V18.7695H25V17.7695ZM2 17.7695V16.7695L2 16.7691L1 16.7695L9.74328e-08 16.77C0.000487256 17.8736 0.895142 18.7695 2 18.7695V17.7695ZM1 16.7695L2 16.7697L2 16.7695V15.7695V14.7695C0.895334 14.7695 0.000162382 15.6651 1.08108e-08 16.7694L1 16.7695ZM2 15.7695V16.7695H25V15.7695V14.7695H2V15.7695ZM25 8.38477V9.38477L25 9.38491L26 9.38477L27 9.38462C26.9998 8.28038 26.1047 7.38477 25 7.38477V8.38477ZM26 9.38477L25 9.38447L25 9.38477V10.3848V11.3848C26.1048 11.3848 26.9997 10.489 27 9.38506L26 9.38477ZM25 10.3848V9.38477H2V10.3848V11.3848H25V10.3848ZM2 10.3848V9.38477L2 9.38447L1 9.38477L4.32105e-08 9.38506C0.000324564 10.489 0.895238 11.3848 2 11.3848V10.3848ZM1 9.38477L2 9.38491L2 9.38477V8.38477V7.38477C0.895334 7.38477 0.000162382 8.28038 1.08108e-08 9.38462L1 9.38477ZM2 8.38477V9.38477H25V8.38477V7.38477H2V8.38477ZM25 1V2L25 2.00015L26 2L27 1.99985C26.9998 0.895614 26.1047 0 25 0V1ZM26 2L25 1.99985L25 2V3V4C26.1047 4 26.9998 3.10439 27 2.00015L26 2ZM25 3V2H2V3V4H25V3ZM2 3V2L2 1.99985L1 2L1.08108e-08 2.00015C0.000162382 3.10439 0.895334 4 2 4V3ZM1 2L2 2.00015L2 2V1V0C0.895334 0 0.000162382 0.895614 1.08108e-08 1.99985L1 2ZM2 1V2H25V1V0H2V1Z" fill="black"/>
</svg>
