<svg width="21" height="21" viewBox="0 0 21 21" fill="none" xmlns="http://www.w3.org/2000/svg">
<path d="M17.6562 1.29297L16.9491 0.585862L17.6562 1.29297ZM19.0703 1.29297L19.7774 0.585862L19.7772 0.585688L19.0703 1.29297ZM11.5957 10.1816L10.8886 9.47453C10.4981 9.86506 10.4981 10.4982 10.8886 10.8887L11.5957 10.1816ZM10.1816 11.5957L10.8887 10.8886C10.4982 10.4981 9.86506 10.4981 9.47453 10.8886L10.1816 11.5957ZM1.29297 19.0703L0.585688 19.7772L0.585862 19.7774L1.29297 19.0703ZM1.29297 17.6562L2.00008 18.3634L1.29297 17.6562ZM8.76758 10.1816L9.47468 10.8887C9.86521 10.4982 9.86521 9.86506 9.47468 9.47453L8.76758 10.1816ZM10.1816 8.76758L9.47453 9.47468C9.86506 9.86521 10.4982 9.86521 10.8887 9.47468L10.1816 8.76758ZM17.6562 1.29297L18.3634 2.00008L18.3634 2.00025L19.0703 1.29297L19.7772 0.585688C18.9964 -0.194778 17.7303 -0.1953 16.9491 0.585862L17.6562 1.29297ZM19.0703 1.29297L18.3632 2.00008L18.3632 1.99992L19.0703 2.70703L19.7774 3.41414C20.5585 2.63309 20.5585 1.36691 19.7774 0.585862L19.0703 1.29297ZM19.0703 2.70703L18.3632 1.99992L10.8886 9.47453L11.5957 10.1816L12.3028 10.8887L19.7774 3.41414L19.0703 2.70703ZM11.5957 10.1816L10.8886 10.8887L18.3632 18.3634L19.0703 17.6562L19.7774 16.9491L12.3028 9.47453L11.5957 10.1816ZM19.0703 17.6562L18.3632 18.3634V18.3632L19.0703 19.0703L19.7774 19.7774C20.5585 18.9964 20.5585 17.7302 19.7774 16.9491L19.0703 17.6562ZM19.0703 19.0703L18.3632 18.3632H18.3634L17.6562 19.0703L16.9491 19.7774C17.7302 20.5585 18.9964 20.5585 19.7774 19.7774L19.0703 19.0703ZM17.6562 19.0703L18.3634 18.3632L10.8887 10.8886L10.1816 11.5957L9.47453 12.3028L16.9491 19.7774L17.6562 19.0703ZM10.1816 11.5957L9.47453 10.8886L1.99992 18.3632L2.70703 19.0703L3.41414 19.7774L10.8887 12.3028L10.1816 11.5957ZM2.70703 19.0703L1.99992 18.3632L2.00008 18.3632L1.29297 19.0703L0.585862 19.7774C1.36691 20.5585 2.63309 20.5585 3.41414 19.7774L2.70703 19.0703ZM1.29297 19.0703L2.00025 18.3634L2.00008 18.3634L1.29297 17.6562L0.585862 16.9491C-0.1953 17.7303 -0.194778 18.9964 0.585688 19.7772L1.29297 19.0703ZM1.29297 17.6562L2.00008 18.3634L9.47468 10.8887L8.76758 10.1816L8.06047 9.47453L0.585862 16.9491L1.29297 17.6562ZM8.76758 10.1816L9.47468 9.47453L2.00008 1.99992L1.29297 2.70703L0.585862 3.41414L8.06047 10.8887L8.76758 10.1816ZM1.29297 2.70703L2.00008 1.99992L2.00008 2.00008L1.29297 1.29297L0.585862 0.585862C-0.195187 1.36691 -0.195187 2.63309 0.585862 3.41414L1.29297 2.70703ZM1.29297 1.29297L2.00008 2.00008L1.99992 2.00008L2.70703 1.29297L3.41414 0.585862C2.63309 -0.195187 1.36691 -0.195187 0.585862 0.585862L1.29297 1.29297ZM2.70703 1.29297L1.99992 2.00008L9.47453 9.47468L10.1816 8.76758L10.8887 8.06047L3.41414 0.585862L2.70703 1.29297ZM10.1816 8.76758L10.8887 9.47468L18.3634 2.00008L17.6562 1.29297L16.9491 0.585862L9.47453 8.06047L10.1816 8.76758Z" fill="black"/>
</svg>
